<svg width="74" height="74" viewBox="0 0 74 74" fill="none" xmlns="http://www.w3.org/2000/svg">
<rect x="0.5" y="0.5" width="73" height="73" rx="36.5" fill="white" stroke="#E1E1E1"/>
<path fill-rule="evenodd" clip-rule="evenodd" d="M41.2993 27.47C42.32 26.287 43.0081 24.6394 42.8198 23C41.3489 23.056 39.5694 23.9396 38.5147 25.1212C37.5676 26.1698 36.7409 27.8453 36.9631 29.4524C38.6039 29.5742 40.2786 28.6544 41.2993 27.47ZM44.9787 37.875C45.0197 42.1127 48.8576 43.5224 48.9001 43.5406C48.869 43.64 48.2871 45.5493 46.8785 47.5232C45.6596 49.2284 44.3954 50.9267 42.4036 50.9631C40.4471 50.9981 39.8171 49.8516 37.5789 49.8516C35.3422 49.8516 34.6428 50.9265 32.7911 50.9979C30.8686 51.0665 29.4034 49.1531 28.176 47.4535C25.6646 43.9774 23.7464 37.6301 26.3229 33.3462C27.6027 31.2196 29.889 29.8709 32.3721 29.8373C34.2592 29.8023 36.0415 31.0541 37.1953 31.0541C38.3491 31.0541 40.5151 29.5491 42.7915 29.7703C43.7442 29.8081 46.4198 30.1384 48.137 32.5478C47.9983 32.6304 44.9447 34.3331 44.9787 37.875Z" fill="#4F4F4F"/>
</svg>
