<svg width="20" height="20" viewBox="0 0 20 20" fill="none" xmlns="http://www.w3.org/2000/svg">
<g clip-path="url(#clip0_948_6315)">
<path fill-rule="evenodd" clip-rule="evenodd" d="M2.88693 2.88693C4.57551 1.19979 7.01122 0.356934 9.99979 0.356934C12.9884 0.356934 15.4241 1.19979 17.1126 2.88693C18.7998 4.57551 19.6426 7.01122 19.6426 9.99979C19.6426 12.9884 18.7998 15.4241 17.1126 17.1126C15.4241 18.7998 12.9884 19.6426 9.99979 19.6426C7.01122 19.6426 4.57551 18.7998 2.88693 17.1126C1.19979 15.4241 0.356934 12.9884 0.356934 9.99979C0.356934 7.01122 1.19979 4.57551 2.88693 2.88693ZM8.67836 5.03836C9.16265 3.8555 10.8355 3.8555 11.3212 5.03836L12.1598 7.08265L14.4441 7.28265C15.7184 7.39551 16.2155 8.99693 15.2255 9.81122L13.5669 11.1726L14.1098 13.6898C14.3812 14.9455 12.9869 15.8926 11.9198 15.1784L9.99979 13.8941L8.07979 15.1798C7.01122 15.8926 5.61836 14.9455 5.88836 13.6898L6.43122 11.1726L4.77408 9.80979C3.78408 8.99836 4.27979 7.39551 5.55551 7.28265L7.83979 7.08265L8.67836 5.03836Z" fill="#9D9E9E"/>
</g>
<defs>
<clipPath id="clip0_948_6315">
<rect width="20" height="20" fill="white"/>
</clipPath>
</defs>
</svg>
