<svg width="74" height="74" viewBox="0 0 74 74" fill="none" xmlns="http://www.w3.org/2000/svg">
<rect x="0.5" y="0.5" width="73" height="73" rx="36.5" fill="white" stroke="#E1E1E1"/>
<g clip-path="url(#clip0_19_709)">
<path d="M50.6668 37.262C50.6668 36.1149 50.5737 35.2778 50.3722 34.4097H37.2729V39.5873H44.9619C44.807 40.874 43.9699 42.8118 42.1096 44.1139L42.0835 44.2873L46.2253 47.4958L46.5122 47.5245C49.1475 45.0906 50.6668 41.5096 50.6668 37.262Z" fill="#4285F4"/>
<path d="M37.2728 50.9039C41.0398 50.9039 44.2022 49.6637 46.5121 47.5245L42.1094 44.1139C40.9313 44.9356 39.3501 45.5091 37.2728 45.5091C33.5833 45.5091 30.4519 43.0754 29.3357 39.7114L29.1721 39.7253L24.8654 43.0583L24.8091 43.2148C27.1034 47.7724 31.816 50.9039 37.2728 50.9039Z" fill="#34A853"/>
<path d="M29.3356 39.7113C29.041 38.8432 28.8706 37.913 28.8706 36.9519C28.8706 35.9907 29.041 35.0606 29.3201 34.1925L29.3123 34.0076L24.9516 30.6211L24.809 30.689C23.8634 32.5802 23.3208 34.7041 23.3208 36.9519C23.3208 39.1997 23.8634 41.3234 24.809 43.2147L29.3356 39.7113Z" fill="#FBBC05"/>
<path d="M37.2728 28.3947C39.8926 28.3947 41.6598 29.5264 42.6675 30.472L46.605 26.6275C44.1868 24.3797 41.0398 23 37.2728 23C31.816 23 27.1034 26.1314 24.8091 30.689L29.3202 34.1925C30.4519 30.8286 33.5833 28.3947 37.2728 28.3947Z" fill="#EB4335"/>
</g>
<defs>
<clipPath id="clip0_19_709">
<rect width="28" height="28" fill="white" transform="translate(23 23)"/>
</clipPath>
</defs>
</svg>
