<svg width="20" height="20" viewBox="0 0 20 20" fill="none" xmlns="http://www.w3.org/2000/svg">
<g clip-path="url(#clip0_948_6310)">
<path fill-rule="evenodd" clip-rule="evenodd" d="M3.50881 2.83866C5.13599 1.2115 7.48241 0.400879 10.3568 0.400879C13.2311 0.400879 15.5776 1.2115 17.2047 2.83866C18.8319 4.46582 19.6424 6.81226 19.6424 9.68659C19.6424 12.5609 18.8319 14.9074 17.2047 16.5345C15.5776 18.1616 13.2311 18.9724 10.3568 18.9724C8.77571 18.9724 7.35527 18.7278 6.12371 18.2351L2.34213 19.4956C1.2084 19.8735 0.13941 18.7752 0.547816 17.6521L1.85953 14.0449C1.3325 12.7848 1.07104 11.3215 1.07104 9.68659C1.07104 6.81226 1.88166 4.46582 3.50881 2.83866ZM10.4452 11.0241C11.1337 11.0241 11.6918 10.4659 11.6918 9.77743C11.6918 9.08895 11.1337 8.5308 10.4452 8.5308C9.75666 8.5308 9.19851 9.08895 9.19851 9.77743C9.19851 10.4659 9.75666 11.0241 10.4452 11.0241ZM7.15321 9.77743C7.15321 10.4659 6.59507 11.0241 5.90659 11.0241C5.21809 11.0241 4.65994 10.4659 4.65994 9.77743C4.65994 9.08895 5.21809 8.5308 5.90659 8.5308C6.59507 8.5308 7.15321 9.08895 7.15321 9.77743ZM14.983 11.0241C15.6716 11.0241 16.2297 10.4659 16.2297 9.77743C16.2297 9.08895 15.6716 8.5308 14.983 8.5308C14.2946 8.5308 13.7364 9.08895 13.7364 9.77743C13.7364 10.4659 14.2946 11.0241 14.983 11.0241Z" fill="#9D9E9E"/>
</g>
<defs>
<clipPath id="clip0_948_6310">
<rect width="20" height="20" fill="white"/>
</clipPath>
</defs>
</svg>
