<svg width="20" height="20" viewBox="0 0 20 20" fill="none" xmlns="http://www.w3.org/2000/svg">
<path fill-rule="evenodd" clip-rule="evenodd" d="M3.537 1.42879C4.95565 1.22837 6.48237 1.0127 8.04407 1.0127C9.60577 1.0127 11.1325 1.22837 12.5511 1.42879C12.7849 1.46182 13.0158 1.49442 13.2433 1.52558C14.1947 1.65586 14.9539 2.39065 15.1119 3.33235C15.1546 3.84143 15.2016 4.35053 15.2488 4.861C15.4096 6.60379 15.5719 8.36259 15.5719 10.1896C15.5719 12.4072 15.4302 14.5514 15.3604 15.3344C15.3165 15.8256 15.6792 16.2593 16.1704 16.303C16.6615 16.3469 17.0952 15.9841 17.1389 15.493C17.2126 14.6671 17.3576 12.4693 17.3576 10.1896C17.3576 8.72498 17.2555 7.27298 17.1341 5.8758C17.1242 5.763 17.2131 5.66598 17.3264 5.66598C18.5088 5.66598 19.4716 6.62513 19.4659 7.81225C19.4535 10.4043 19.4032 13.0629 19.2709 15.5413C19.1838 17.1719 17.9072 18.4749 16.2881 18.6167L15.9708 18.644C15.2398 18.7061 14.4949 18.7627 13.7427 18.8113C12.0673 18.9193 10.3492 18.9873 8.63861 18.9873C8.62478 18.9873 8.611 18.9869 8.5973 18.9861C8.4133 18.9869 8.22888 18.9873 8.04407 18.9873C6.6497 18.9873 5.29465 18.8166 4.01895 18.6389C2.32832 18.4033 1.00367 17.0209 0.846898 15.319C0.690721 13.6235 0.531738 11.836 0.531738 9.99999C0.531738 8.09409 0.703651 6.23192 0.866107 4.47218C0.896327 4.14483 0.92622 3.82102 0.954618 3.50115C1.04532 2.47949 1.83725 1.66355 2.84485 1.52558C3.07241 1.49442 3.30325 1.46182 3.537 1.42879ZM4.19784 9.09699C4.25404 9.43329 4.5331 9.69128 4.87314 9.71625C5.05731 9.72978 5.243 9.74413 5.43014 9.75862C6.29332 9.8254 7.1872 9.89455 8.10281 9.89455C9.01841 9.89455 9.9123 9.8254 10.7755 9.75862C10.9626 9.74413 11.1483 9.72978 11.3325 9.71625C11.6725 9.69128 11.9516 9.4333 12.0078 9.09699L12.0315 8.95586C12.1301 8.3696 12.2324 7.76186 12.2324 7.139C12.2324 6.51616 12.1301 5.90842 12.0315 5.32216L12.0078 5.18103C11.9516 4.84472 11.6725 4.58675 11.3325 4.56178C11.1484 4.54825 10.9627 4.53389 10.7756 4.51942C9.91245 4.45263 9.01841 4.38348 8.10281 4.38348C7.1872 4.38348 6.29332 4.45262 5.43012 4.5194C5.24302 4.53388 5.05727 4.54825 4.87314 4.56178C4.5331 4.58675 4.25404 4.84472 4.19784 5.18103L4.17415 5.32215C4.07551 5.9084 3.97325 6.51615 3.97325 7.139C3.97325 7.76188 4.07551 8.3696 4.17415 8.95586L4.19784 9.09699ZM11.2301 14.472C11.7232 14.472 12.1229 14.0722 12.1229 13.5791C12.1229 13.086 11.7232 12.6863 11.2301 12.6863H4.90451C4.4114 12.6863 4.01165 13.086 4.01165 13.5791C4.01165 14.0722 4.4114 14.472 4.90451 14.472H11.2301Z" fill="#9D9E9E"/>
</svg>
