<svg width="20" height="20" viewBox="0 0 20 20" fill="none" xmlns="http://www.w3.org/2000/svg">
<g clip-path="url(#clip0_948_6320)">
<path fill-rule="evenodd" clip-rule="evenodd" d="M2.88758 2.88758C4.57545 1.19969 7.01118 0.356934 9.99979 0.356934C12.9884 0.356934 15.4241 1.19969 17.1121 2.88758C18.7999 4.57545 19.6426 7.01118 19.6426 9.99979C19.6426 12.9884 18.7999 15.4241 17.1121 17.1121C15.4241 18.7999 12.9884 19.6426 9.99979 19.6426C7.01118 19.6426 4.57545 18.7999 2.88758 17.1121C1.19969 15.4241 0.356934 12.9884 0.356934 9.99979C0.356934 7.01118 1.19969 4.57545 2.88758 2.88758ZM4.41455 4.41455C3.21243 5.61666 2.49979 7.45415 2.49979 9.99979C2.49979 11.492 2.74466 12.7409 3.18946 13.7611H4.56971C5.2017 13.7611 5.8078 13.5101 6.25469 13.0632C6.70158 12.6163 6.95263 12.0102 6.95263 11.3782V9.33568C6.95263 8.70369 7.2037 8.09758 7.65059 7.65069C8.09748 7.2038 8.70358 6.95275 9.33556 6.95275C9.96756 6.95275 10.5737 6.70169 11.0205 6.2548C11.4674 5.80792 11.7185 5.20182 11.7185 4.56982V2.62093C11.1861 2.5412 10.6135 2.49979 9.99979 2.49979C7.45415 2.49979 5.61666 3.21243 4.41455 4.41455ZM17.4998 9.99979C17.4998 9.94388 17.4995 9.8883 17.4988 9.83306C17.1034 9.72822 16.6949 9.67348 16.2831 9.6712H13.3826C12.7507 9.6712 12.1445 9.92226 11.6977 10.3691C11.2508 10.816 10.9997 11.4221 10.9997 12.0541C10.9997 12.6861 11.2508 13.2922 11.6977 13.7391C12.1445 14.186 12.7507 14.4371 13.3826 14.4371C13.8341 14.4371 14.267 14.6164 14.5862 14.9356C14.8798 15.2291 15.0549 15.6188 15.0812 16.0305C15.2601 15.8908 15.4281 15.7421 15.5851 15.5851C16.7871 14.3829 17.4998 12.5454 17.4998 9.99979Z" fill="#9D9E9E"/>
</g>
<defs>
<clipPath id="clip0_948_6320">
<rect width="20" height="20" fill="white"/>
</clipPath>
</defs>
</svg>
