<svg width="24" height="24" viewBox="0 0 24 24" fill="none" xmlns="http://www.w3.org/2000/svg">
<g clip-path="url(#clip0_948_6338)">
<path fill-rule="evenodd" clip-rule="evenodd" d="M22.892 1.09189C21.5556 -0.244718 19.376 -0.203366 18.091 1.18298L12.4108 7.31152C12.1618 7.58016 11.9731 7.89888 11.8573 8.24637L11.0013 10.8142C10.5546 12.1544 11.8296 13.4294 13.1697 12.9827L15.7376 12.1267C16.0851 12.0109 16.4038 11.8221 16.6724 11.5732L22.801 5.8929C24.1873 4.60795 24.2286 2.4285 22.892 1.09189ZM10.8391 5.85487C10.3827 6.34737 10.0367 6.93168 9.82431 7.56873L8.96835 10.1366C7.96323 13.152 10.8319 16.0207 13.8473 15.0156L16.4152 14.1596C17.0522 13.9473 17.6365 13.6013 18.129 13.1448L21.3075 10.1988C21.5694 9.9561 21.9948 10.1214 22.0186 10.4777C22.0717 11.2737 22.1052 12.0853 22.1052 12.9071C22.1052 13.3286 22.0964 13.7475 22.0806 14.163C22.0794 14.1937 22.0818 14.2245 22.0863 14.2549C22.1029 14.366 22.1089 14.4803 22.1031 14.5968C22.0306 16.0421 21.8802 17.4506 21.7314 18.7823C21.5629 20.2914 20.7567 21.6028 19.6042 22.451C18.8742 22.9996 17.9946 23.3668 17.0377 23.4775C15.6147 23.6421 14.0982 23.812 12.5406 23.8823C12.4409 23.8867 12.3428 23.8826 12.247 23.8704C12.221 23.8672 12.1949 23.8656 12.1688 23.8665C11.8277 23.8778 11.4844 23.884 11.1393 23.884C9.06277 23.884 7.05082 23.6599 5.19797 23.4455C2.76363 23.164 0.819974 21.2251 0.547082 18.7821C0.340649 16.9341 0.130453 14.9368 0.130453 12.8751C0.130453 12.4536 0.139242 12.0347 0.15499 11.6192C0.156155 11.5885 0.153852 11.5577 0.149292 11.5273C0.132644 11.4163 0.12672 11.3019 0.132564 11.1854C0.205071 9.74015 0.355433 8.33155 0.504173 7C0.672761 5.49076 1.47901 4.17933 2.63153 3.33112C3.36145 2.78255 4.24097 2.41547 5.19797 2.30478C6.62091 2.14017 8.13745 1.97015 9.695 1.9C9.79474 1.89551 9.89288 1.89962 9.98868 1.91171C10.0146 1.91498 10.0407 1.91661 10.0668 1.91575C10.4079 1.90444 10.7513 1.89825 11.0964 1.89825C11.9053 1.89825 12.7044 1.93226 13.4882 1.98647C13.8439 2.01105 14.0082 2.4357 13.7659 2.69716L10.8391 5.85487Z" fill="#9D9E9E"/>
</g>
<defs>
<clipPath id="clip0_948_6338">
<rect width="24" height="24" fill="white"/>
</clipPath>
</defs>
</svg>
