<svg width="74" height="74" viewBox="0 0 74 74" fill="none" xmlns="http://www.w3.org/2000/svg">
<rect x="0.5" y="0.5" width="73" height="73" rx="36.5" fill="white" stroke="#E1E1E1"/>
<g clip-path="url(#clip0_19_724)">
<path d="M46.8 23H27.2C24.8804 23 23 24.8804 23 27.2V46.8C23 49.1196 24.8804 51 27.2 51H46.8C49.1196 51 51 49.1196 51 46.8V27.2C51 24.8804 49.1196 23 46.8 23Z" fill="#5281B8"/>
<path d="M37.9844 42.8517C38.2578 42.797 38.75 42.6876 38.75 42.0313C38.75 42.0313 38.6953 40.3907 39.461 40.172C40.2266 39.9532 41.211 41.7579 42.25 42.4688C43.0157 42.961 43.6172 42.9063 43.6172 42.9063L46.4063 42.8517C46.4063 42.8517 47.8282 42.7423 47.1719 41.5938C47.1172 41.4845 46.6797 40.7735 45.0391 39.297C43.3438 37.6563 43.6172 37.9298 45.6407 35.1407C46.8985 33.4454 47.4453 32.4063 47.2813 32.0235C47.0625 31.6407 46.1875 31.6954 46.1875 31.6954H43.0703C42.7422 31.6954 42.5782 31.7501 42.4141 32.0235C42.4141 32.0235 41.9219 33.3907 41.2657 34.4845C39.8985 36.836 39.3516 36.9454 39.0782 36.7813C38.586 36.5079 38.6953 35.4688 38.6953 34.7579C38.6953 32.297 39.0782 31.422 37.9844 31.2032C37.2735 31.0938 34.7578 30.9845 33.9922 31.3673C33.6094 31.586 33.3907 31.9688 33.5547 32.0235C33.7188 32.0235 34.211 32.0782 34.4844 32.4063C34.9219 33.1173 34.9766 36.5079 34.375 36.836C33.5547 37.4376 31.4766 33.4454 30.9844 32.1329C30.875 31.8048 30.711 31.7501 30.3282 31.6407H27.3203C26.9922 31.6407 26.5 31.6954 26.7188 32.3517C28.1953 35.4142 31.2578 42.9063 36.7813 42.8517H37.9844Z" fill="white"/>
</g>
<defs>
<clipPath id="clip0_19_724">
<rect width="28" height="28" fill="white" transform="translate(23 23)"/>
</clipPath>
</defs>
</svg>
