<svg width="20" height="20" viewBox="0 0 20 20" fill="none" xmlns="http://www.w3.org/2000/svg">
<path fill-rule="evenodd" clip-rule="evenodd" d="M1.33597 6.99675C1.37031 6.74908 1.54972 6.50569 1.87457 6.30184C2.87481 5.67418 3.91218 5.02409 5.10874 4.42482C6.30531 3.82554 7.60329 3.30598 8.85651 2.80504C9.76615 2.44142 11.0702 2.44164 11.9825 2.80361L12.0497 2.83029C13.2919 3.32314 14.5782 3.83349 15.7588 4.42482C16.9395 5.01615 17.9585 5.66036 18.9425 6.28248L18.9958 6.31616C19.7185 6.77304 19.7189 7.42616 18.9929 7.88174C17.9928 8.50941 16.9554 9.15948 15.7588 9.75876C15.6544 9.81111 15.5491 9.86284 15.4431 9.91399C14.4116 10.412 13.3162 10.8563 12.2465 11.2844L12.011 11.3785C11.1014 11.7422 9.79734 11.742 8.88511 11.38L8.81785 11.3533C7.73097 10.922 6.61029 10.4774 5.55615 9.97684L5.42451 9.91386C5.31849 9.86276 5.21321 9.81108 5.10874 9.75876C4.51587 9.46184 3.96375 9.15156 3.43637 8.83745V13.9954C3.93754 14.3378 4.26648 14.9138 4.26648 15.5666C4.26648 16.6168 3.41512 17.4681 2.36492 17.4681C1.31473 17.4681 0.463379 16.6168 0.463379 15.5666C0.463379 14.9138 0.792329 14.3379 1.29351 13.9954V7.29636C1.29351 7.19236 1.30833 7.09184 1.33597 6.99675ZM5.30844 11.8298C5.32258 12.2461 5.35207 12.6545 5.38851 13.0527C5.54575 14.7704 6.93727 16.1593 8.65105 16.323C9.22567 16.3778 9.82241 16.4186 10.4338 16.4186C11.0451 16.4186 11.6419 16.3778 12.2165 16.323C13.9303 16.1593 15.3218 14.7704 15.4791 13.0527C15.5155 12.6549 15.5449 12.2469 15.5591 11.831C14.5918 12.2701 13.6045 12.6647 12.6868 13.0315L12.6739 13.0367C11.3378 13.5708 9.56085 13.5693 8.22648 13.0398L8.12974 13.0014C7.22858 12.6439 6.25798 12.2588 5.30844 11.8298Z" fill="#9D9E9E"/>
</svg>
